<svg xmlns="http://www.w3.org/2000/svg" version="1.1" xmlns:xlink="http://www.w3.org/1999/xlink" width="1000" height="1000"><style>
    #light-icon {
      display: inline;
    }
    #dark-icon {
      display: none;
    }

    @media (prefers-color-scheme: dark) {
      #light-icon {
        display: none;
      }
      #dark-icon {
        display: inline;
      }
    }
  </style><g id="light-icon"><svg xmlns="http://www.w3.org/2000/svg" version="1.1" xmlns:xlink="http://www.w3.org/1999/xlink" width="1000" height="1000"><g><g transform="matrix(1.3192612137203166,0,0,1.3192612137203166,0,71.2401055408971)"><svg xmlns="http://www.w3.org/2000/svg" version="1.1" xmlns:xlink="http://www.w3.org/1999/xlink" width="758" height="650"><svg width="758" height="650" viewBox="0 0 758 650" fill="none" xmlns="http://www.w3.org/2000/svg">
<path d="M111.15 144.35C93.3833 144.35 80.8167 143.483 73.45 141.75C66.0833 139.583 61.5333 136.767 59.8 133.3C58.5 129.833 57.85 126.367 57.85 122.9C57.85 118.133 60.2333 113.8 65 109.9C70.2 105.567 80.6 102.1 96.2 99.5C116.133 95.1666 139.533 90.8333 166.4 86.5C193.7 81.7333 222.733 77.4 253.5 73.5C284.267 69.1666 315.033 65.2666 345.8 61.8C377 58.3333 406.683 55.7333 434.85 54C463.45 51.8333 488.8 50.75 510.9 50.75C540.367 50.75 560.3 53.35 570.7 58.55C581.533 63.75 586.95 69.3833 586.95 75.45C586.95 81.0833 583.917 86.2833 577.85 91.05C572.217 95.8167 562.467 98.2 548.6 98.2C542.967 98.2 529.967 99.5 509.6 102.1C489.233 104.267 464.317 107.3 434.85 111.2C405.817 114.667 375.05 118.567 342.55 122.9C340.383 137.633 337.133 157.133 332.8 181.4C328.467 205.233 323.483 231.45 317.85 260.05C312.65 288.65 307.233 317.467 301.6 346.5C296.4 375.1 291.417 401.75 286.65 426.45C282.317 451.15 278.633 471.517 275.6 487.55C272.567 503.583 270.833 513.117 270.4 516.15C268.667 529.583 264.767 539.767 258.7 546.7C253.067 553.2 246.783 556.45 239.85 556.45C231.617 556.45 224.683 552.983 219.05 546.05C213.85 538.683 211.25 525.9 211.25 507.7C211.25 501.633 212.55 489.933 215.15 472.6C217.75 454.833 221.217 433.817 225.55 409.55C229.883 385.283 234.65 359.5 239.85 332.2C245.05 304.9 250.25 278.25 255.45 252.25C260.65 225.817 265.417 201.983 269.75 180.75C274.083 159.083 277.333 142.183 279.5 130.05C245.267 133.95 212.983 137.417 182.65 140.45C152.75 143.05 128.917 144.35 111.15 144.35Z" fill="black"></path>
<path d="M357.373 381.952C357.373 372.06 360.557 363.727 366.926 356.952C373.43 350.041 381.831 346.586 392.129 346.586C401.885 346.586 409.879 349.703 416.112 355.936C422.481 362.033 425.665 369.892 425.665 379.513C425.665 389.675 422.21 398.008 415.299 404.512C408.524 411.016 400.327 414.268 390.706 414.268C380.95 414.268 372.956 411.287 366.723 405.325C360.49 399.228 357.373 391.437 357.373 381.952Z" fill="black" fill-opacity="0.15"></path>
<path d="M377.847 380.208C377.847 376.049 379.186 372.546 381.863 369.698C384.598 366.792 388.13 365.34 392.459 365.34C396.561 365.34 399.922 366.65 402.542 369.271C405.219 371.834 406.558 375.138 406.558 379.183C406.558 383.455 405.105 386.958 402.2 389.693C399.352 392.427 395.905 393.794 391.861 393.794C387.759 393.794 384.398 392.541 381.778 390.035C379.157 387.471 377.847 384.196 377.847 380.208ZM459.195 345.601C459.651 341.784 460.391 337.939 461.417 334.065C462.499 330.192 463.866 326.46 465.518 322.872C467.17 319.283 469.135 315.95 471.414 312.874C473.75 309.741 476.399 307.035 479.361 304.756C482.323 302.535 485.627 300.797 489.273 299.544C492.976 298.291 497.049 297.721 501.492 297.835C504.17 297.892 506.733 298.262 509.183 298.946C511.689 299.629 513.996 300.598 516.104 301.851C517.471 302.649 518.753 303.589 519.949 304.671C521.146 305.753 522.285 306.978 523.367 308.345L532.254 260.75H552.249L529.434 392H511.49L512.942 382.344C511.518 383.882 510.037 385.278 508.499 386.531C506.961 387.728 505.366 388.81 503.714 389.778C501.378 391.089 498.843 392.085 496.109 392.769C493.431 393.453 490.583 393.766 487.564 393.709C483.519 393.595 479.931 392.854 476.797 391.487C473.721 390.063 471.072 388.183 468.851 385.848C466.629 383.569 464.806 380.92 463.382 377.901C461.958 374.825 460.847 371.578 460.049 368.16C459.309 364.799 458.853 361.352 458.682 357.82C458.511 354.288 458.597 350.842 458.938 347.481L459.195 345.601ZM478.934 347.481C478.649 349.646 478.478 351.981 478.421 354.488C478.421 356.994 478.62 359.444 479.019 361.836C479.361 363.773 479.817 365.596 480.386 367.305C481.013 369.014 481.867 370.524 482.95 371.834C484.146 373.315 485.627 374.511 487.393 375.423C489.159 376.334 491.295 376.819 493.802 376.875C496.194 376.932 498.416 376.676 500.467 376.106C502.518 375.48 504.397 374.568 506.106 373.372C507.588 372.404 508.983 371.264 510.293 369.954C511.604 368.644 512.828 367.22 513.968 365.682L520.975 325.691C520.234 323.925 519.351 322.359 518.326 320.992C517.357 319.625 516.218 318.485 514.908 317.574C513.597 316.605 512.116 315.865 510.464 315.352C508.869 314.839 507.103 314.555 505.167 314.498C500.894 314.441 497.22 315.352 494.144 317.232C491.067 319.112 488.504 321.561 486.453 324.581C484.345 327.6 482.693 330.961 481.497 334.664C480.358 338.366 479.56 342.041 479.104 345.687L478.934 347.481ZM599.332 393.709C593.065 393.652 587.454 392.427 582.498 390.035C577.542 387.642 573.412 384.424 570.108 380.379C566.747 376.448 564.297 371.806 562.759 366.451C561.278 361.096 560.794 355.371 561.307 349.275L561.734 345.687C562.247 341.015 563.3 336.458 564.896 332.015C566.548 327.571 568.655 323.441 571.219 319.625C573.27 316.605 575.577 313.814 578.14 311.25C580.761 308.63 583.58 306.351 586.6 304.415C590.075 302.25 593.834 300.598 597.879 299.458C601.98 298.262 606.281 297.721 610.782 297.835C617.219 298.006 622.716 299.373 627.273 301.937C631.831 304.443 635.477 307.804 638.211 312.02C640.945 316.235 642.797 321.049 643.765 326.46C644.734 331.815 644.847 337.426 644.107 343.294L642.74 352.095H580.96C580.732 355.399 581.017 358.561 581.814 361.58C582.612 364.542 583.865 367.163 585.574 369.441C587.283 371.72 589.448 373.571 592.068 374.996C594.746 376.363 597.85 377.075 601.382 377.132C606.452 377.303 611.181 376.391 615.567 374.397C619.953 372.347 623.855 369.527 627.273 365.938L637.186 376.619C633.027 382.43 627.501 386.759 620.608 389.607C613.715 392.399 606.623 393.766 599.332 393.709ZM609.5 314.412C606.025 314.241 602.892 314.811 600.101 316.121C597.366 317.431 594.945 319.169 592.837 321.333C590.673 323.498 588.793 325.976 587.198 328.768C585.603 331.559 584.236 334.379 583.096 337.227L625.223 337.312L625.564 335.433C626.02 332.641 625.963 329.992 625.394 327.486C624.881 324.979 623.941 322.786 622.574 320.906C621.15 318.969 619.327 317.431 617.105 316.292C614.94 315.153 612.405 314.526 609.5 314.412ZM689.651 392L668.716 299.544L688.37 299.458L700.589 366.536L700.845 372.603L703.238 366.109L735.538 299.544H756.814L707.168 392H689.651Z" fill="#A4B2C7"></path>
</svg></svg></g></g></svg></g><g id="dark-icon"><svg xmlns="http://www.w3.org/2000/svg" version="1.1" xmlns:xlink="http://www.w3.org/1999/xlink" width="1000" height="1000"><g><g transform="matrix(1.3192612137203166,0,0,1.3192612137203166,0,71.2401055408971)"><svg xmlns="http://www.w3.org/2000/svg" version="1.1" xmlns:xlink="http://www.w3.org/1999/xlink" width="758" height="650"><svg width="758" height="650" viewBox="0 0 758 650" fill="none" xmlns="http://www.w3.org/2000/svg">
<path d="M111.15 144.35C93.3833 144.35 80.8167 143.483 73.45 141.75C66.0833 139.583 61.5333 136.767 59.8 133.3C58.5 129.833 57.85 126.367 57.85 122.9C57.85 118.133 60.2333 113.8 65 109.9C70.2 105.567 80.6 102.1 96.2 99.5C116.133 95.1666 139.533 90.8333 166.4 86.5C193.7 81.7333 222.733 77.4 253.5 73.5C284.267 69.1666 315.033 65.2666 345.8 61.8C377 58.3333 406.683 55.7333 434.85 54C463.45 51.8333 488.8 50.75 510.9 50.75C540.367 50.75 560.3 53.35 570.7 58.55C581.533 63.75 586.95 69.3833 586.95 75.45C586.95 81.0833 583.917 86.2833 577.85 91.05C572.217 95.8167 562.467 98.2 548.6 98.2C542.967 98.2 529.967 99.5 509.6 102.1C489.233 104.267 464.317 107.3 434.85 111.2C405.817 114.667 375.05 118.567 342.55 122.9C340.383 137.633 337.133 157.133 332.8 181.4C328.467 205.233 323.483 231.45 317.85 260.05C312.65 288.65 307.233 317.467 301.6 346.5C296.4 375.1 291.417 401.75 286.65 426.45C282.317 451.15 278.633 471.517 275.6 487.55C272.567 503.583 270.833 513.117 270.4 516.15C268.667 529.583 264.767 539.767 258.7 546.7C253.067 553.2 246.783 556.45 239.85 556.45C231.617 556.45 224.683 552.983 219.05 546.05C213.85 538.683 211.25 525.9 211.25 507.7C211.25 501.633 212.55 489.933 215.15 472.6C217.75 454.833 221.217 433.817 225.55 409.55C229.883 385.283 234.65 359.5 239.85 332.2C245.05 304.9 250.25 278.25 255.45 252.25C260.65 225.817 265.417 201.983 269.75 180.75C274.083 159.083 277.333 142.183 279.5 130.05C245.267 133.95 212.983 137.417 182.65 140.45C152.75 143.05 128.917 144.35 111.15 144.35Z" fill="white"></path>
<path d="M357.373 381.952C357.373 372.06 360.557 363.727 366.926 356.952C373.43 350.041 381.831 346.586 392.129 346.586C401.885 346.586 409.879 349.703 416.112 355.936C422.481 362.033 425.665 369.892 425.665 379.513C425.665 389.675 422.21 398.008 415.299 404.512C408.524 411.016 400.327 414.268 390.706 414.268C380.95 414.268 372.956 411.287 366.723 405.325C360.49 399.228 357.373 391.437 357.373 381.952Z" fill="white" fill-opacity="0.25"></path>
<path d="M377.847 380.208C377.847 376.049 379.186 372.546 381.863 369.698C384.598 366.792 388.13 365.34 392.459 365.34C396.561 365.34 399.922 366.65 402.542 369.271C405.219 371.834 406.558 375.138 406.558 379.183C406.558 383.455 405.105 386.958 402.2 389.693C399.352 392.427 395.905 393.794 391.861 393.794C387.759 393.794 384.398 392.541 381.778 390.035C379.157 387.471 377.847 384.196 377.847 380.208ZM459.195 345.601C459.651 341.784 460.391 337.939 461.417 334.065C462.499 330.192 463.866 326.46 465.518 322.872C467.17 319.283 469.135 315.95 471.414 312.874C473.75 309.741 476.399 307.035 479.361 304.756C482.323 302.535 485.627 300.797 489.273 299.544C492.976 298.291 497.049 297.721 501.492 297.835C504.17 297.892 506.733 298.262 509.183 298.946C511.689 299.629 513.996 300.598 516.104 301.851C517.471 302.649 518.753 303.589 519.949 304.671C521.146 305.753 522.285 306.978 523.367 308.345L532.254 260.75H552.249L529.434 392H511.49L512.942 382.344C511.518 383.882 510.037 385.278 508.499 386.531C506.961 387.728 505.366 388.81 503.714 389.778C501.378 391.089 498.843 392.085 496.109 392.769C493.431 393.453 490.583 393.766 487.564 393.709C483.519 393.595 479.931 392.854 476.797 391.487C473.721 390.063 471.072 388.183 468.851 385.848C466.629 383.569 464.806 380.92 463.382 377.901C461.958 374.825 460.847 371.578 460.049 368.16C459.309 364.799 458.853 361.352 458.682 357.82C458.511 354.288 458.597 350.842 458.938 347.481L459.195 345.601ZM478.934 347.481C478.649 349.646 478.478 351.981 478.421 354.488C478.421 356.994 478.62 359.444 479.019 361.836C479.361 363.773 479.817 365.596 480.386 367.305C481.013 369.014 481.867 370.524 482.95 371.834C484.146 373.315 485.627 374.511 487.393 375.423C489.159 376.334 491.295 376.819 493.802 376.875C496.194 376.932 498.416 376.676 500.467 376.106C502.518 375.48 504.397 374.568 506.106 373.372C507.588 372.404 508.983 371.264 510.293 369.954C511.604 368.644 512.828 367.22 513.968 365.682L520.975 325.691C520.234 323.925 519.351 322.359 518.326 320.992C517.357 319.625 516.218 318.485 514.908 317.574C513.597 316.605 512.116 315.865 510.464 315.352C508.869 314.839 507.103 314.555 505.167 314.498C500.894 314.441 497.22 315.352 494.144 317.232C491.067 319.112 488.504 321.561 486.453 324.581C484.345 327.6 482.693 330.961 481.497 334.664C480.358 338.366 479.56 342.041 479.104 345.687L478.934 347.481ZM599.332 393.709C593.065 393.652 587.454 392.427 582.498 390.035C577.542 387.642 573.412 384.424 570.108 380.379C566.747 376.448 564.297 371.806 562.759 366.451C561.278 361.096 560.794 355.371 561.307 349.275L561.734 345.687C562.247 341.015 563.3 336.458 564.896 332.015C566.548 327.571 568.655 323.441 571.219 319.625C573.27 316.605 575.577 313.814 578.14 311.25C580.761 308.63 583.58 306.351 586.6 304.415C590.075 302.25 593.834 300.598 597.879 299.458C601.98 298.262 606.281 297.721 610.782 297.835C617.219 298.006 622.716 299.373 627.273 301.937C631.831 304.443 635.477 307.804 638.211 312.02C640.945 316.235 642.797 321.049 643.765 326.46C644.734 331.815 644.847 337.426 644.107 343.294L642.74 352.095H580.96C580.732 355.399 581.017 358.561 581.814 361.58C582.612 364.542 583.865 367.163 585.574 369.441C587.283 371.72 589.448 373.571 592.068 374.996C594.746 376.363 597.85 377.075 601.382 377.132C606.452 377.303 611.181 376.391 615.567 374.397C619.953 372.347 623.855 369.527 627.273 365.938L637.186 376.619C633.027 382.43 627.501 386.759 620.608 389.607C613.715 392.399 606.623 393.766 599.332 393.709ZM609.5 314.412C606.025 314.241 602.892 314.811 600.101 316.121C597.366 317.431 594.945 319.169 592.837 321.333C590.673 323.498 588.793 325.976 587.198 328.768C585.603 331.559 584.236 334.379 583.096 337.227L625.223 337.312L625.564 335.433C626.02 332.641 625.963 329.992 625.394 327.486C624.881 324.979 623.941 322.786 622.574 320.906C621.15 318.969 619.327 317.431 617.105 316.292C614.94 315.153 612.405 314.526 609.5 314.412ZM689.651 392L668.716 299.544L688.37 299.458L700.589 366.536L700.845 372.603L703.238 366.109L735.538 299.544H756.814L707.168 392H689.651Z" fill="#A4B2C7"></path>
</svg></svg></g></g></svg></g></svg>